<svg width="15" height="15" viewBox="0 0 15 15" fill="none" xmlns="http://www.w3.org/2000/svg">
<path id="Vector" d="M12.8816 6.41942C12.8826 7.89115 12.4719 9.09228 11.6953 10.1691C11.5781 10.3316 11.5969 10.4152 11.7299 10.5467C12.4918 11.2973 13.2434 12.0587 14.0028 12.8114C14.176 12.9831 14.2688 13.1727 14.2576 13.4219C14.2336 13.9412 13.671 14.2591 13.2185 13.9952C13.1176 13.9366 13.0294 13.852 12.9458 13.7684C12.2176 13.0437 11.4874 12.3216 10.7693 11.5868C10.6119 11.4252 10.513 11.3942 10.3122 11.5384C9.10241 12.4078 7.74024 12.8307 6.25984 12.6773C3.72202 12.4139 1.92669 11.0772 0.993097 8.69785C-0.316074 5.36199 1.66679 1.54608 5.11375 0.620134C8.42464 -0.269633 11.8038 1.6954 12.6839 4.99609C12.82 5.50519 12.9 6.02549 12.8816 6.41942ZM6.74193 1.83554C4.19137 1.8019 2.01893 3.89484 2.01791 6.53C2.01689 9.17025 4.12053 11.2871 6.74702 11.2851C9.33836 11.2831 11.47 9.15802 11.4639 6.5621C11.4573 3.84184 9.25784 1.80751 6.74193 1.83554Z" fill="url(#paint0_linear_49_976)"/>
<defs>
<linearGradient id="paint0_linear_49_976" x1="14.2585" y1="7.24804" x2="0.586914" y2="7.24804" gradientUnits="userSpaceOnUse">
<stop stop-color="#FF2564"/>
<stop offset="1" stop-color="#1D4FFF"/>
</linearGradient>
</defs>
</svg>
